<?xml version="1.0" encoding="UTF-8" standalone="no"?>
<svg
   width="100%"
   height="100%"
   viewBox="0 0 64 64"
   version="1.1"
   xml:space="preserve"
   style="fill-rule:evenodd;clip-rule:evenodd;stroke-linejoin:round;stroke-miterlimit:2;"
   id="svg407"
   sodipodi:docname="Arms_Rank_01.svg"
   inkscape:version="1.2.2 (732a01da63, 2022-12-09)"
   xmlns:inkscape="http://www.inkscape.org/namespaces/inkscape"
   xmlns:sodipodi="http://sodipodi.sourceforge.net/DTD/sodipodi-0.dtd"
   xmlns="http://www.w3.org/2000/svg"
   xmlns:svg="http://www.w3.org/2000/svg"><defs
   id="defs411">
        
    
            
            
            
        
                
            
                
            
                
            </defs><sodipodi:namedview
   id="namedview409"
   pagecolor="#505050"
   bordercolor="#eeeeee"
   borderopacity="1"
   inkscape:showpageshadow="0"
   inkscape:pageopacity="0"
   inkscape:pagecheckerboard="0"
   inkscape:deskcolor="#505050"
   showgrid="false"
   inkscape:zoom="18.34375"
   inkscape:cx="20.660988"
   inkscape:cy="32"
   inkscape:window-width="3440"
   inkscape:window-height="1377"
   inkscape:window-x="-8"
   inkscape:window-y="-8"
   inkscape:window-maximized="1"
   inkscape:current-layer="svg407" />
    <path
   id="path605"
   style="display:inline;opacity:1;fill:none;fill-opacity:0.76;stroke:#000000;stroke-width:3.3;stroke-linejoin:round;stroke-dasharray:none;stroke-opacity:1;paint-order:markers fill stroke"
   d="m 23,7 -4.230469,5 H 16 v 11 l 3,3 4,4 v 4 3 4 9 4 h -3 v 3 H 48 V 54 H 44 V 50 41 37 34 30.044922 30 24.5 21 c 0,0 -0.0045,-0.422895 -0.28125,-0.71875 L 44,20 V 17 10 H 42 L 39,7 H 38 35 32.021484 L 32,7.015625 V 7 H 29 V 7.00586 L 28.992188,7 H 26.046875 L 26,7.03125 V 7 Z" />
<g
   transform="matrix(1,0,0,1,0,-128)"
   id="g621"
   style="paint-order:fill markers stroke">
        <g
   id="g619"
   transform="matrix(1,0,0,1,0,-768)"
   style="paint-order:fill markers stroke">
            <g
   id="g609"
   transform="matrix(1,0,0,1,-128,0)"
   style="paint-order:fill markers stroke">
                <path
   d="m 147,922 4,4 v 4 l 1,1 v 1 l -1,1 v 4 l 1,1 v 7 l -1,1 v 5 h 21 v -5 l -0.5,-1 v -7 l 0.5,-1 v -4 l -1,-1 v -1 l 1,-1 v -4 l -1,-1 v -3 l 1,-1.5 -1,-1.5 v -2 l 1,-1 v -3 l -1,-1 v -5 l -4,-4 h -1 l -1.5,1 -1.5,-1 h -2.979 l -1.446,1 -1.583,-1 h -2.945 l -1.541,1 -1.506,-1 -5.5,6.5 z"
   style="display:inline;fill-opacity:1;paint-order:fill markers stroke;opacity:1;fill:#212121"
   id="path607"
   inkscape:label="path607" />
            </g>
            <g
   id="g613"
   transform="matrix(1,0,0,1,-128,0)"
   style="paint-order:fill markers stroke">
                <path
   d="m 147,908 h -3 v 11 l 3,3 z m 7,-5 h -3 v 10 h 3 z m 6,0 h -3 v 10 h 3 z m 6,0 h -3 v 10 h 3 z m 6,3 h -3 v 7 h 3 z"
   style="display:inline;fill:#888888;paint-order:fill markers stroke"
   id="path611" />
            </g>
            <g
   id="g617"
   transform="matrix(1,0,0,1,-128,0)"
   style="paint-order:fill markers stroke">
                <path
   d="m 176,950 h -28 v 3 h 28 z m -4,-13 h -21 v 9 h 21 z m -16,4 c 0,-0.552 -0.448,-1 -1,-1 h -1 c -0.552,0 -1,0.448 -1,1 v 1 c 0,0.552 0.448,1 1,1 h 1 c 0.552,0 1,-0.448 1,-1 z m 10,0 c 0,-0.552 -0.448,-1 -1,-1 h -1 c -0.552,0 -1,0.448 -1,1 v 1 c 0,0.552 0.448,1 1,1 h 1 c 0.552,0 1,-0.448 1,-1 z m -5,0 c 0,-0.552 -0.448,-1 -1,-1 h -1 c -0.552,0 -1,0.448 -1,1 v 1 c 0,0.552 0.448,1 1,1 h 1 c 0.552,0 1,-0.448 1,-1 z m 10,0 c 0,-0.552 -0.448,-1 -1,-1 h -1 c -0.552,0 -1,0.448 -1,1 v 1 c 0,0.552 0.448,1 1,1 h 1 c 0.552,0 1,-0.448 1,-1 z m 1,-11 h -21 v 3 h 21 z m 0,-13 c 0,0 0,-1 -1,-1 h -19 c -1,0 -1,1 -1,1 v 9 l 21,0.045 z m -16,3 c 0,-0.552 -0.448,-1 -1,-1 h -1 c -0.552,0 -1,0.448 -1,1 v 1 c 0,0.552 0.448,1 1,1 h 1 c 0.552,0 1,-0.448 1,-1 z m 10,0 c 0,-0.552 -0.448,-1 -1,-1 h -1 c -0.552,0 -1,0.448 -1,1 v 1 c 0,0.552 0.448,1 1,1 h 1 c 0.552,0 1,-0.448 1,-1 z m -5,0 c 0,-0.552 -0.448,-1 -1,-1 h -1 c -0.552,0 -1,0.448 -1,1 v 1 c 0,0.552 0.448,1 1,1 h 1 c 0.552,0 1,-0.448 1,-1 z m 10,0 c 0,-0.552 -0.448,-1 -1,-1 h -1 c -0.552,0 -1,0.448 -1,1 v 1 c 0,0.552 0.448,1 1,1 h 1 c 0.552,0 1,-0.448 1,-1 z"
   style="display:inline;fill:#bebebe;paint-order:fill markers stroke"
   id="path615" />
            </g>
        </g>
    </g></svg>
