<?xml version="1.0" encoding="UTF-8" standalone="no"?>
<svg
   width="100%"
   height="100%"
   viewBox="0 0 64 64"
   version="1.1"
   xml:space="preserve"
   style="fill-rule:evenodd;clip-rule:evenodd;stroke-linejoin:round;stroke-miterlimit:2;"
   id="svg10072"
   sodipodi:docname="Heavy_Bowgun_Rank_01.svg"
   inkscape:version="1.2.2 (732a01da63, 2022-12-09)"
   xmlns:inkscape="http://www.inkscape.org/namespaces/inkscape"
   xmlns:sodipodi="http://sodipodi.sourceforge.net/DTD/sodipodi-0.dtd"
   xmlns="http://www.w3.org/2000/svg"
   xmlns:svg="http://www.w3.org/2000/svg"><defs
   id="defs10076">
        
    
            
        
                
                
                
                
            </defs><sodipodi:namedview
   id="namedview10074"
   pagecolor="#505050"
   bordercolor="#eeeeee"
   borderopacity="1"
   inkscape:showpageshadow="0"
   inkscape:pageopacity="0"
   inkscape:pagecheckerboard="0"
   inkscape:deskcolor="#505050"
   showgrid="false"
   inkscape:zoom="16.046875"
   inkscape:cx="32"
   inkscape:cy="31.968841"
   inkscape:window-width="3440"
   inkscape:window-height="1377"
   inkscape:window-x="-8"
   inkscape:window-y="-8"
   inkscape:window-maximized="1"
   inkscape:current-layer="svg10072" />
    <path
   id="background"
   style="fill-opacity:0.77;fill:none;stroke:#000000;stroke-opacity:1;stroke-width:4;stroke-dasharray:none"
   d="M 27 5 L 27 8 L 25.546875 11.632812 C 25.44291 11.743268 25.3562 11.868154 25.279297 12 L 22 12 L 16 12 C 5.9500101 12 7 15.000005 7 20 C 7 22.421998 7.4691255 23.436251 7.953125 24.40625 L 8.046875 24.59375 C 8.5308745 25.563749 9 26.578002 9 29 C 9 31.421998 8.060749 31.967125 7.09375 32.453125 L 6.90625 32.546875 C 5.939251 33.032875 5 33.578002 5 36 L 10 36 C 11.999998 34.000002 12 31.999996 12 28 L 12 22 C 12 20.000002 13.000003 18 16 18 C 18.999997 18 22 20 22 20 L 24 22 L 26 22 L 27 22 L 27 24 L 27 26 L 27 29 L 26 29 C 25.448001 29 25 29.448001 25 30 L 25 39 L 22 42 L 22 58 L 42 58 L 42 42 L 39 39 L 39 34 L 42 34 L 46 34 L 46 46 C 46 46.549999 46.448001 47 47 47 L 52 47 C 52.551999 47 53 46.549999 53 46 L 53 45 C 53 44.450001 52.551999 44 52 44 L 49 44 L 49 32 C 49 31.448001 48.551999 31 48 31 L 42 31 L 39 31 L 39 30 C 39 29.448001 38.551999 29 38 29 L 37 29 L 37 26 L 37 24 L 37 22 L 38 22 L 40 22 L 42 20 C 42 20 45.000003 18 48 18 C 50.999997 18 52 20.000002 52 22 L 52 28 C 52 31.999996 52.000002 34.000002 54 36 L 59 36 C 59 31.000005 55 33.999995 55 29 C 55 24.000005 57 24.999995 57 20 C 57 15.000005 58.04999 12 48 12 L 42 12 L 38.720703 12 C 38.6438 11.868154 38.55709 11.743268 38.453125 11.632812 L 37 8 L 37 5 L 27 5 z " />
<g
   transform="matrix(1,0,0,1,0,-768)"
   id="g10570">
        <g
   transform="matrix(1,0,0,1,0,-544)"
   id="g10568">
            <g
   id="g10566"
   transform="matrix(1,0,0,1,-768,352)">
                <path
   id="path10558"
   d="M793.4,972L795,968L796,967L804,967L805,968L806.6,972L810,972L811,973L811,979L808,982L805,982L805,991L810,991L811,992L811,993L810,994L804,994L804,996L810,1002L809,1003L809,1011L791,1011L791,1003L790,1002L796,996L795,991L795,982L792,982L789,979L789,973L790,972L793.4,972Z"
   style="fill-opacity:1;fill:#1f1f1f" />
                <path
   id="path10560"
   d="M802,1002L802,1007.33C802,1007.7 801.701,1008 801.333,1008L798.667,1008C798.299,1008 798,1007.7 798,1007.33L798,1002L802,1002ZM798,999L798,996C798,994.896 798.896,994 800,994C801.104,994 802,994.896 802,996L802,999L798,999Z"
   style="fill:rgb(61,61,61);" />
                <path
   id="path10562"
   d="M803,1002L810,1002L810,1018L790,1018L790,1002L797,1002L797,1009C797,1009.55 797.448,1010 798,1010L802,1010C802.552,1010 803,1009.55 803,1009L803,1002ZM815,1007C814.448,1007 814,1006.55 814,1006L814,994L810,994L810,991L816,991C816.552,991 817,991.448 817,992L817,1004L820,1004C820.552,1004 821,1004.45 821,1005L821,1006C821,1006.55 820.552,1007 820,1007L815,1007ZM797,999L793,999L793,990C793,989.448 793.448,989 794,989L806,989C806.552,989 807,989.448 807,990L807,999L803,999L803,995C803,993.344 801.656,992 800,992C798.344,992 797,993.344 797,995L797,999ZM805,984L795,984L795,986L805,986L805,984ZM807,973C807,971.896 806.104,971 805,971L795,971C793.896,971 793,971.896 793,973L793,981C793,981.552 793.448,982 794,982L806,982C806.552,982 807,981.552 807,981L807,973ZM805,965L795,965L795,968L805,968L805,965Z"
   style="fill:rgb(150,150,150);" />
                <path
   id="path10564"
   d="M775.953,984.406C775.469,983.436 775,982.422 775,980C775,975 773.95,972 784,972L790,972L790,980C790,980 787,978 784,978C781,978 780,980 780,982L780,988C780,992 780,994 778,996L773,996C773,993.578 773.939,993.033 774.906,992.547L775.094,992.453C776.061,991.967 777,991.422 777,989C777,986.578 776.531,985.564 776.047,984.594L775.953,984.406ZM810,972L816,972C826.05,972 825,975 825,980C825,985 823,984 823,989C823,994 827,991 827,996L822,996C820,994 820,992 820,988L820,982C820,980 819,978 816,978C813,978 810,980 810,980L810,972Z"
   style="fill:rgb(181,181,181);" />
            </g>
        </g>
    </g></svg>
