<?xml version="1.0" encoding="UTF-8" standalone="no"?>
<svg
   width="100%"
   height="100%"
   viewBox="0 0 64 64"
   version="1.1"
   xml:space="preserve"
   style="fill-rule:evenodd;clip-rule:evenodd;stroke-linejoin:round;stroke-miterlimit:2;"
   id="svg14056"
   sodipodi:docname="Hunting_Horn_Rank_01.svg"
   inkscape:version="1.2.2 (732a01da63, 2022-12-09)"
   xmlns:inkscape="http://www.inkscape.org/namespaces/inkscape"
   xmlns:sodipodi="http://sodipodi.sourceforge.net/DTD/sodipodi-0.dtd"
   xmlns="http://www.w3.org/2000/svg"
   xmlns:svg="http://www.w3.org/2000/svg"><defs
   id="defs14060">
        
    
            
        
                
                
                
            </defs><sodipodi:namedview
   id="namedview14058"
   pagecolor="#505050"
   bordercolor="#eeeeee"
   borderopacity="1"
   inkscape:showpageshadow="0"
   inkscape:pageopacity="0"
   inkscape:pagecheckerboard="0"
   inkscape:deskcolor="#505050"
   showgrid="false"
   inkscape:zoom="16.046875"
   inkscape:cx="32"
   inkscape:cy="31.968841"
   inkscape:window-width="3440"
   inkscape:window-height="1377"
   inkscape:window-x="-8"
   inkscape:window-y="-8"
   inkscape:window-maximized="1"
   inkscape:current-layer="svg14056" />
    <path
   id="background"
   style="fill-opacity:0.76;fill:none;stroke:#000000;stroke-opacity:1;stroke-width:4;stroke-dasharray:none"
   d="M 45 5 L 45 9 L 48 11 L 48 14 L 48 20 L 48 24 L 48 30 L 45 30 L 19.5 30 L 16 30 L 7 39 L 7 45 L 9 47 L 9 52 L 9 55 L 12 55 L 17 55 L 18 56 L 21 56 L 22 56 L 24 56 L 24 59 L 27 56 L 31 56 L 32 56 L 38 56 L 41 53 L 44 53 L 50 53 C 50.551999 53 51 52.549999 51 52 L 51 47 C 51 46.519403 50.657749 46.113898 50.203125 46.019531 L 52 44 L 59 37 L 53 37 L 53 34 L 53 24 L 53 20 L 53 14 L 53 11 L 56 9 L 56 5 L 53 5 C 53 5 52.999997 7 50.5 7 C 49.000002 7 48 5 48 5 L 45 5 z M 18 10 L 18 20 L 13 20 C 11.344002 20 10 21.344002 10 23 C 10 24.655998 11.344002 26 13 26 L 18 26 C 19.655998 26 21 24.655998 21 23 L 23 21 C 23 21 28 17.999998 28 16 C 28 14.000002 20 10 20 10 L 18 10 z " />
<g
   transform="matrix(1,0,0,1,0,-448)"
   id="g14552">
        <g
   transform="matrix(1,0,0,1,-448,-512)"
   id="g14550">
            <g
   id="g14548">
                <path
   id="path14542"
   d="m 496,971 h 5 v 26 h -1 v 7 l -8,9 h -12 v 3 h -11 v -1 h -12 v -14.5 L 467.5,990 H 496 Z m -27,12 5.5,-5.5 -5.5,-3.5 z"
   style="display:inline;fill:#1f1f1f;fill-opacity:1" />
                <path
   id="path14544"
   d="m 477,1014 h -5 v 5 z m -17,1 -3,-3 v 3 z m 39,-8 c 0,-0.55 -0.448,-1 -1,-1 h -6 v 7 h 6 c 0.552,0 1,-0.45 1,-1 z m 8,-10 h -7 v 7 z m -14,-32 h 3 c 0,0 1,2 2.5,2 2.5,0 2.5,-2 2.5,-2 h 3 v 4 l -3,2 h -5 l -3,-2 z"
   style="display:inline;fill:#969696" />
                <path
   id="path14546"
   d="m 501,984 v 10 h -3 c -0.552,0 -1,0.448 -1,1 v 8 h -7 c -0.552,0 -1,0.45 -1,1 v 9 l -3,3 h -7 v -3 c 0,-0.55 -0.448,-1 -1,-1 h -7 c -0.552,0 -1,0.45 -1,1 v 3 h -4 l -11,-11 v -6 l 9,-9 h 29 v 4 l -12,12 h -13 l -4,-4 5.5,-6 4,4 H 468 l 3,3 h 9.5 l -11,-11 -9.5,10 7,7 h 16 l 13,-13 v -12 z m -35,-4 v -10 h 2 c 0,0 8,4 8,6 0,2 -5,5 -5,5 0,0 1,-1 1,-3.5 0,-2.5 -3,-2.5 -3,-2.5 v 8 c 0,1.656 -1.344,3 -3,3 h -5 c -1.656,0 -3,-1.344 -3,-3 0,-1.656 1.344,-3 3,-3 z m 35,0 h -5 v -6 h 5 z"
   style="display:inline;fill:#b5b5b5" />
            </g>
        </g>
    </g></svg>
