<?xml version="1.0" encoding="UTF-8" standalone="no"?>
<svg
   width="100%"
   height="100%"
   viewBox="0 0 64 64"
   version="1.1"
   xml:space="preserve"
   style="fill-rule:evenodd;clip-rule:evenodd;stroke-linejoin:round;stroke-miterlimit:2;"
   id="svg12"
   sodipodi:docname="Insect_Glaive_Rank_01.svg"
   inkscape:version="1.2.2 (732a01da63, 2022-12-09)"
   xmlns:inkscape="http://www.inkscape.org/namespaces/inkscape"
   xmlns:sodipodi="http://sodipodi.sourceforge.net/DTD/sodipodi-0.dtd"
   xmlns="http://www.w3.org/2000/svg"
   xmlns:svg="http://www.w3.org/2000/svg"><defs
   id="defs16">
        
    
            
        
                
                
                
                
                
            </defs><sodipodi:namedview
   id="namedview14"
   pagecolor="#505050"
   bordercolor="#eeeeee"
   borderopacity="1"
   inkscape:showpageshadow="0"
   inkscape:pageopacity="0"
   inkscape:pagecheckerboard="0"
   inkscape:deskcolor="#505050"
   showgrid="false"
   inkscape:zoom="16.046875"
   inkscape:cx="16.046738"
   inkscape:cy="31.968841"
   inkscape:window-width="3440"
   inkscape:window-height="1377"
   inkscape:window-x="-8"
   inkscape:window-y="-8"
   inkscape:window-maximized="1"
   inkscape:current-layer="svg12" />
    
<path
   id="background"
   style="display:inline;fill:none;fill-opacity:0.77;stroke:#000000;stroke-width:4;stroke-dasharray:none;stroke-opacity:1"
   d="m 19,6 c 0,0 -2,3.000001 -2,4 0,0.409541 0.172695,0.815399 0.439453,1.15625 -1.161645,0.168776 -2.679137,0.52305 -3.613281,1.279297 C 13.645919,12.172781 13.342493,12 13,12 c -0.551999,0 -1,0.448001 -1,1 0,0.551999 0.448001,1 1,1 0,0.559207 -0.155619,1.168432 -0.388672,1.777344 C 12.221664,16.150901 12,16.564322 12,17 h 0.04883 C 11.170158,18.634004 10,20 10,20 H 9 v 10 c 0,0 2e-6,2.000002 2,4 1.999998,1.999998 7,2 7,2 h 2 c 0,0 5.000002,-2e-6 7,-2 1.999998,-1.999998 2,-4 2,-4 V 20 h -1 c 0,0 -1.144083,-1.530265 -2.019531,-3.169922 -0.04043,-0.308673 -0.189662,-0.604074 -0.431641,-0.880859 C 25.227535,15.232779 25,14.542064 25,14 c 0.551999,0 1,-0.448001 1,-1 0,-0.551999 -0.448001,-1 -1,-1 -0.342493,0 -0.645919,0.172781 -0.826172,0.435547 C 23.239684,11.6793 21.722192,11.325026 20.560547,11.15625 20.827305,10.815399 21,10.409541 21,10 21,9.000001 19,6 19,6 Z m 33,2 v 2.09375 1 V 17 c 0,4.999995 -5,13 -5,13 l -2,2 -1,1 -16,16 -1,-1 -2,2 h -3 c -1.706998,-1.049999 -4,-1.960938 -4,-1.960938 v -0.0098 C 18,48.029297 17.999998,44 16,44 v 3 h -2 c -1.999998,0 -3,1 -3,1 v -3 c -1.999998,0 -2,4 -2,4 0,0 -1,3e-6 -1,2.5 0,2.499997 2.000008,7.5 10,7.5 6.423227,0 8.330345,-1.290558 8.833984,-2.833984 L 29,54 l 1,1 2,-2 -1,-1 1,-1 14,-14 1,-1 1,-1 2,-2 c 0,0 7,-8.000006 7,-14 C 57,13.000006 52,8 52,8 Z" /><g
   transform="matrix(1,0,0,1,0,-640)"
   id="g867">
        <g
   transform="matrix(1,0,0,1,0,-544)"
   id="g865">
            <g
   id="g863"
   transform="matrix(1,0,0,1,-640,224)">
                <path
   id="base"
   d="m 666,1017 h -13 l -4,-4 v -3 h 18 l 20,-20 3,3 z m -16,-37 c 0,0 3,-3.5 3,-6 0,-2.828 6,-3 6,-3 0,0 6,0.172 6,3 0,2 3,6 3,6 z"
   style="display:inline;fill:#242424;fill-opacity:1"
   inkscape:label="base" />
                <path
   id="path855"
   d="M651,980L667,980L667,988L660,996L658,996L651,988L651,980Z"
   style="fill:rgb(26,26,26);" />
                <path
   id="path857"
   d="M667,1008L672,1013L670,1015L665,1010L667,1008ZM684,993L687,996L688,995L685,992L684,993ZM692,970.094C693.063,971.993 695,975.403 695,978C695,982.652 690.792,989.506 688.902,991.902L687,990C687,990 692,982 692,977L692,970.094ZM666,977C666,975.343 662.866,974 659,974C655.134,974 652,975.343 652,977L666,977ZM653,972C653.552,972 654,972.448 654,973C654,973.552 653.552,974 653,974C652.448,974 652,973.552 652,973C652,972.448 652.448,972 653,972ZM665,972C665.552,972 666,972.448 666,973C666,973.552 665.552,974 665,974C664.448,974 664,973.552 664,973C664,972.448 664.448,972 665,972ZM659,966C659,966 661,969 661,970C661,971 660,972 659,972C658,972 657,971 657,970C657,969 659,966 659,966Z"
   style="fill:rgb(118,118,118);" />
                <path
   id="path859"
   d="M669,1008L683,994L686,997L672,1011L669,1008ZM649,980L651,980L658,988L658,996C658,996 653,996 651,994C649,992 649,990 649,990L649,980ZM669,980L667,980L660,988L660,996C660,996 665,996 667,994C669,992 669,990 669,990L669,980Z"
   style="fill:rgb(144,144,144);" />
                <path
   id="path861"
   d="M656,1004C658,1004 658,1008.03 658,1008.03L658,1008.04C658,1008.04 660.293,1008.95 662,1010C664.639,1011.62 667,1013.78 667,1015C667,1017 666,1019 658,1019C650,1019 648,1014 648,1011.5C648,1009 649,1009 649,1009C649,1009 649,1005 651,1005L651,1008C651,1008 652,1007 654,1007L656,1007L656,1004ZM657.5,1014C658.328,1014 659,1014.67 659,1015.5C659,1016.33 658.328,1017 657.5,1017C656.672,1017 656,1016.33 656,1015.5C656,1014.67 656.672,1014 657.5,1014ZM662.5,1013C663.328,1013 664,1013.67 664,1014.5C664,1015.33 663.328,1016 662.5,1016C661.672,1016 661,1015.33 661,1014.5C661,1013.67 661.672,1013 662.5,1013ZM653,1011C654.104,1011 655,1011.9 655,1013C655,1014.1 654.104,1015 653,1015C651.896,1015 651,1014.1 651,1013C651,1011.9 651.896,1011 653,1011ZM654,980L659,985L664,980L654,980ZM687.902,990.902C689.792,988.506 694,982.652 694,978C694,975.403 693.063,972.993 692,971.094L692,968C692,968 697,973 697,979C697,985 690,993 690,993L687.902,990.902Z"
   style="fill:rgb(181,181,181);" />
            </g>
        </g>
    </g></svg>
