<?xml version="1.0" encoding="UTF-8" standalone="no"?>
<svg
   width="100%"
   height="100%"
   viewBox="0 0 64 64"
   version="1.1"
   xml:space="preserve"
   style="fill-rule:evenodd;clip-rule:evenodd;stroke-linejoin:round;stroke-miterlimit:2;"
   id="svg20436"
   sodipodi:docname="Light_Bowgun_Rank_01.svg"
   inkscape:version="1.2.2 (732a01da63, 2022-12-09)"
   xmlns:inkscape="http://www.inkscape.org/namespaces/inkscape"
   xmlns:sodipodi="http://sodipodi.sourceforge.net/DTD/sodipodi-0.dtd"
   xmlns="http://www.w3.org/2000/svg"
   xmlns:svg="http://www.w3.org/2000/svg"><defs
   id="defs20440">
        
    
            
        
                
                
                
            </defs><sodipodi:namedview
   id="namedview20438"
   pagecolor="#505050"
   bordercolor="#eeeeee"
   borderopacity="1"
   inkscape:showpageshadow="0"
   inkscape:pageopacity="0"
   inkscape:pagecheckerboard="0"
   inkscape:deskcolor="#505050"
   showgrid="false"
   inkscape:zoom="16.046875"
   inkscape:cx="32.062317"
   inkscape:cy="31.968841"
   inkscape:window-width="3440"
   inkscape:window-height="1377"
   inkscape:window-x="-8"
   inkscape:window-y="-8"
   inkscape:window-maximized="1"
   inkscape:current-layer="svg20436" />
    <path
   id="background"
   style="fill-opacity:0.77;fill:none;stroke:#000000;stroke-opacity:1;stroke-width:4;stroke-dasharray:none"
   d="M 30 5 L 30 6 L 30 7 L 30 11 L 22 11 L 15 18 L 15 29 L 12 29 C 12 29 11.999998 28 10 28 C 8.000002 28 6 30.000002 6 32 C 6 33.999998 9.000004 38 13 38 C 16.999996 38 19 33.999998 19 32 L 19 19 L 23.572266 14.427734 L 25 18 L 25 28 L 30 43 L 30 47 C 30 48.449999 29.530875 49.670861 29.046875 50.880859 L 28.953125 51.119141 C 28.469125 52.329139 28 53.550001 28 55 C 28 57.999997 29.000003 59 32 59 C 34.999997 59 36 57.999997 36 55 C 36 53.550001 35.530875 52.329139 35.046875 51.119141 L 34.953125 50.880859 C 34.469125 49.670861 34 48.449999 34 47 L 34 43 L 39 28 L 39 18 L 40.875 14.875 L 45 19 L 45 32 C 45 33.999998 47.000004 38 51 38 C 54.999996 38 58 33.999998 58 32 C 58 30.000002 55.999998 28 54 28 C 52.000002 28 52 29 52 29 L 49 29 L 49 18 L 42 11 L 34 11 L 34 7 L 34 6 L 34 5 L 30 5 z M 43 43 C 42.735534 43 42.497249 43.105341 42.318359 43.273438 L 38.927734 44.628906 C 38.78001 44.261346 38.420507 44 38 44 C 37.448001 44 37 44.450001 37 45 L 37 48 L 44 48 L 44 44 C 44 43.450001 43.551999 43 43 43 z " />
<g
   transform="matrix(1,0,0,1,0,-704)"
   id="g20932">
        <g
   transform="matrix(1,0,0,1,0,-544)"
   id="g20930">
            <g
   id="g20928"
   transform="matrix(1,0,0,1,-704,288)">
                <path
   d="M734,1007L734,1003L733,995L739,995L738,1003L738,1007L734,1007ZM747,1003L742,1005L742,1007L747,1007L747,1003ZM720,989L713,989L713,995L720,995L720,989ZM752,989L759,989L759,995L752,995L752,989ZM738,973L746,973L742.4,979L729.4,979L727,973L734,973L734,966L738,966L738,973Z"
   style="fill-opacity:1;fill:#1f1f1f"
   id="base"
   inkscape:label="base" />
                <path
   id="path20924"
   d="M733.047,1010.88C733.531,1009.67 734,1008.45 734,1007C734,1004 735,1003 736,1003C737,1003 738,1004 738,1007C738,1008.45 738.469,1009.67 738.953,1010.88L739.047,1011.12C739.531,1012.33 740,1013.55 740,1015C740,1018 739,1019 736,1019C733,1019 732,1018 732,1015C732,1013.55 732.469,1012.33 732.953,1011.12L733.047,1010.88ZM741,1008L741,1005C741,1004.45 741.448,1004 742,1004C742.552,1004 743,1004.45 743,1005L743,1006L746,1006L746,1004C746,1003.45 746.448,1003 747,1003C747.552,1003 748,1003.45 748,1004L748,1008L741,1008Z"
   style="fill:rgb(150,150,150);" />
                <path
   id="path20926"
   d="M743,978L729,978L729,988L734,1003L734,997C734,997 734,996 736,996C738,996 738,997 738,997L738,1003L743,988L743,978ZM728,974L723,979L723,992C723,994 721,998 717,998C713,998 710,994 710,992C710,990 712,988 714,988C716,988 716,989 716,989C716,989 714,990 714,992C714,994 717,994 717,994C717,994 719,994 719,992L719,978L726,971L746,971L753,978L753,992C753,994 755,994 755,994C755,994 758,994 758,992C758,990 756,989 756,989C756,989 756,988 758,988C760,988 762,990 762,992C762,994 759,998 755,998C751,998 749,994 749,992L749,979L744,974L728,974ZM738,965L734,965L734,967C734,967.552 734.448,968 735,968L737,968C737.552,968 738,967.552 738,967L738,965Z"
   style="fill:rgb(181,181,181);" />
            </g>
        </g>
    </g></svg>
