<?xml version="1.0" encoding="UTF-8" standalone="no"?>
<svg
   width="100%"
   height="100%"
   viewBox="0 0 64 64"
   version="1.1"
   xml:space="preserve"
   style="fill-rule:evenodd;clip-rule:evenodd;stroke-linejoin:round;stroke-miterlimit:2;"
   id="svg21342"
   sodipodi:docname="Long_Sword_Rank_01.svg"
   inkscape:version="1.2.2 (732a01da63, 2022-12-09)"
   xmlns:inkscape="http://www.inkscape.org/namespaces/inkscape"
   xmlns:sodipodi="http://sodipodi.sourceforge.net/DTD/sodipodi-0.dtd"
   xmlns="http://www.w3.org/2000/svg"
   xmlns:svg="http://www.w3.org/2000/svg"><defs
   id="defs21346">
        
    
            
        
                
                
                
            </defs><sodipodi:namedview
   id="namedview21344"
   pagecolor="#505050"
   bordercolor="#eeeeee"
   borderopacity="1"
   inkscape:showpageshadow="0"
   inkscape:pageopacity="0"
   inkscape:pagecheckerboard="0"
   inkscape:deskcolor="#505050"
   showgrid="false"
   inkscape:zoom="16.046875"
   inkscape:cx="32"
   inkscape:cy="31.968841"
   inkscape:window-width="3440"
   inkscape:window-height="1377"
   inkscape:window-x="-8"
   inkscape:window-y="-8"
   inkscape:window-maximized="1"
   inkscape:current-layer="svg21342" />
    <path
   id="background"
   style="fill-opacity:0.76;fill:none;stroke:#000000;stroke-opacity:1;stroke-width:4;stroke-dasharray:none"
   d="M 16.515625 5.1386719 C 16.261875 5.1600469 16.017344 5.2787815 15.839844 5.4882812 L 15.1875 6.2597656 C 14.858942 6.6475564 14.88475 7.213115 15.222656 7.5761719 C 14.850937 8.0385649 14.445694 8.5253047 14 9 C 13.577486 9.4500078 13.171072 9.7931314 12.804688 10.064453 L 11.847656 9.7480469 C 11.325657 9.575047 10.761844 9.8598599 10.589844 10.380859 L 10.273438 11.339844 C 10.100438 11.860843 10.383297 12.423703 10.904297 12.595703 L 12.648438 13.171875 C 12.863556 13.75935 13.021242 14.391599 13 15 C 12.976257 15.680056 12.842834 16.378268 12.681641 17 L 10.994141 17 C 10.445141 17 10 17.445141 10 17.994141 L 10 18.005859 C 10 18.554859 10.445141 19 10.994141 19 L 12.001953 19 C 12.001924 19.000066 12 19.005859 12 19.005859 L 23.833984 19.005859 L 24 19.005859 L 24.015625 18.990234 C 26.091473 18.916799 27.782078 17.627764 28.044922 15.958984 L 32.121094 15.794922 L 32.121094 15.791016 C 32.137584 15.790654 32.15329 15.794152 32.169922 15.792969 L 43.023438 15.003906 L 47.861328 15.693359 L 46.611328 17.427734 C 46.188879 17.288353 45.709019 17.440986 45.457031 17.832031 C 45.224375 18.193077 45.258802 18.645746 45.501953 18.970703 L 43.783203 21.355469 L 41.789062 19.958984 C 40.885063 19.325985 39.636906 19.546173 39.003906 20.451172 C 38.370907 21.355171 38.590142 22.603329 39.494141 23.236328 L 41.445312 24.603516 L 39 28 C 39 28 27.718993 42.990005 21 48 C 14.281007 53.009995 6 53 6 53 C 6 53 5.9529696 54.669689 6.7929688 55.929688 C 7.0799685 56.359687 7.4690005 56.75 8 57 C 10.086998 57.999999 15.511006 59.219997 22 56 C 28.488994 52.780003 45 32 45 32 L 47.154297 28.599609 L 49.324219 30.119141 C 50.228218 30.75214 51.476376 30.532905 52.109375 29.628906 C 52.743374 28.724907 52.52314 27.474796 51.619141 26.841797 L 49.296875 25.216797 L 50.980469 22.558594 C 51.41388 22.726908 51.921969 22.573968 52.183594 22.167969 C 52.448029 21.757608 52.372917 21.226597 52.03125 20.902344 L 53.34375 18.828125 C 53.799651 19.078503 54.376052 18.941961 54.662109 18.498047 L 55.201172 17.662109 C 55.491235 17.212948 55.370359 16.618811 54.939453 16.310547 L 56.275391 14.203125 C 56.673019 14.292408 57.100455 14.135837 57.333984 13.773438 L 57.876953 12.933594 C 58.175953 12.469594 58.040171 11.849781 57.576172 11.550781 L 57.115234 11.253906 C 56.796093 11.048253 56.406941 11.05214 56.095703 11.222656 L 54 9.9648438 C 54.006357 9.629716 53.849199 9.3002853 53.546875 9.1054688 L 53.085938 8.8066406 C 52.621938 8.5076409 52.002125 8.6414692 51.703125 9.1054688 L 51.160156 9.9472656 C 50.931414 10.302237 50.959428 10.746587 51.191406 11.070312 L 49.771484 13.041016 C 49.36875 12.94298 48.930306 13.101047 48.693359 13.46875 L 48.632812 13.5625 L 43.328125 13.041016 C 43.225383 13.014201 43.11761 13.001609 43.005859 13.009766 L 43 13.009766 L 32.191406 13.796875 L 32.181641 13.796875 L 27.652344 13.974609 C 26.962479 12.809229 25.514043 12.005859 23.833984 12.005859 C 23.833984 12.005859 23.325728 11.031108 22.166016 9.8359375 C 22.127293 9.6143654 22.017419 9.4043021 21.832031 9.2480469 L 17.240234 5.3691406 C 17.030735 5.1921408 16.769375 5.1172969 16.515625 5.1386719 z M 42.158203 30.105469 C 41.409704 31.079468 40.20953 32.623705 38.753906 34.439453 C 40.20953 32.623705 41.409704 31.079468 42.158203 30.105469 z M 33.814453 40.400391 C 32.927954 41.429265 32.025577 42.450813 31.132812 43.427734 C 32.025577 42.450813 32.927954 41.429265 33.814453 40.400391 z " />
<g
   transform="matrix(1,0,0,1,0,-128)"
   id="g21838">
        <g
   transform="matrix(1,0,0,1,-128,-832)"
   id="g21836">
            <g
   id="g21834">
                <path
   id="path21828"
   d="M177.345,973.633L180.594,969.121L185.594,972.121L173,992L167,988L175.861,975.694L171,975L171,973.01L177.345,973.633ZM144.509,965.879C144.509,965.879 143.337,967.576 142,969C140.663,970.424 139.428,970.869 139.428,970.869C139.428,970.869 141.067,973.081 141,975C140.933,976.919 140,979.005 140,979.005L152,979.005L155,976L160.121,975.795L160.192,973.796L155,974L151.834,972.005C151.834,972.005 151.293,970.956 150.034,969.697C148.775,968.438 144.509,965.879 144.509,965.879Z"
   style="fill-opacity:1;fill:#1f1f1f" />
                <path
   id="path21830"
   d="M170.158,990.105C167.164,994.001 156.954,1007.03 152,1010C146.714,1013.17 143.1,1015.51 134.792,1015.93C133.952,1014.67 134,1013 134,1013C134,1013 142.281,1013.01 149,1008C155.719,1002.99 167,988 167,988L170.158,990.105ZM180.183,982.167C180.482,981.703 180.348,981.084 179.884,980.785L174.841,977.534C174.377,977.235 173.757,977.369 173.458,977.833C173.159,978.297 173.293,978.916 173.757,979.215L178.801,982.466C179.265,982.765 179.884,982.631 180.183,982.167ZM151.834,979.005C154.181,979.005 156.084,977.438 156.084,975.505C156.084,973.572 154.181,972.005 151.834,972.005L151.834,979.005ZM150,977.995C150,977.446 149.554,977 149.005,977L138.995,977C138.446,977 138,977.446 138,977.995L138,978.005C138,978.554 138.446,979 138.995,979L149.005,979C149.554,979 150,978.554 150,978.005L150,977.995ZM183.202,977.662C183.501,977.199 183.367,976.579 182.903,976.28L178.076,973.169C177.612,972.87 176.992,973.004 176.693,973.468L176.155,974.304C175.856,974.768 175.99,975.387 176.454,975.686L181.281,978.797C181.745,979.096 182.364,978.962 182.663,978.498L183.202,977.662ZM172.071,973.929C172.031,973.382 171.554,972.969 171.006,973.009L160.025,973.808C159.478,973.848 159.065,974.325 159.105,974.872C159.145,975.42 159.622,975.832 160.17,975.793L171.151,974.994C171.698,974.954 172.111,974.477 172.071,973.929ZM149.983,974.146C150.156,973.625 149.872,973.062 149.351,972.889L139.847,969.748C139.325,969.575 138.762,969.859 138.59,970.38L138.273,971.339C138.1,971.86 138.384,972.424 138.905,972.596L148.409,975.738C148.931,975.91 149.494,975.627 149.666,975.105L149.983,974.146ZM185.876,972.934C186.175,972.47 186.041,971.85 185.577,971.551L185.116,971.254C184.652,970.955 184.033,971.089 183.734,971.553L183.192,972.394C182.893,972.857 183.027,973.477 183.491,973.776L183.952,974.073C184.416,974.372 185.035,974.238 185.334,973.774L185.876,972.934ZM181.845,970.487C182.144,970.023 182.01,969.404 181.546,969.105L181.085,968.807C180.621,968.508 180.002,968.642 179.703,969.106L179.161,969.947C178.862,970.411 178.996,971.03 179.46,971.329L179.921,971.626C180.385,971.925 181.005,971.791 181.304,971.328L181.845,970.487ZM149.951,970.65C150.305,970.23 150.253,969.602 149.833,969.248L145.241,965.37C144.822,965.016 144.194,965.069 143.839,965.488L143.188,966.26C142.833,966.679 142.886,967.308 143.306,967.662L147.897,971.54C148.317,971.894 148.945,971.841 149.299,971.421L149.951,970.65Z"
   style="fill:rgb(108,108,107);" />
                <path
   id="path21832"
   d="M170.158,990.105L173,992C173,992 156.489,1012.78 150,1016C143.511,1019.22 138.087,1018 136,1017C135.469,1016.75 135.079,1016.36 134.792,1015.93C143.1,1015.51 146.714,1013.17 152,1010C156.954,1007.03 167.164,994.001 170.158,990.105ZM180.11,989.628C180.744,988.724 180.523,987.475 179.619,986.842L169.789,979.959C168.885,979.326 167.637,979.546 167.004,980.451C166.371,981.355 166.591,982.603 167.495,983.236L177.325,990.119C178.229,990.752 179.477,990.532 180.11,989.628Z"
   style="fill:rgb(181,181,181);" />
            </g>
        </g>
    </g></svg>
