<?xml version="1.0" encoding="UTF-8" standalone="no"?>
<!-- Created with Inkscape (http://www.inkscape.org/) -->

<svg
   version="1.1"
   id="svg2"
   width="240.22647"
   height="299.8439"
   viewBox="0 0 240.22647 299.8439"
   sodipodi:docname="potion.svg"
   inkscape:version="1.2.2 (732a01da63, 2022-12-09)"
   xmlns:inkscape="http://www.inkscape.org/namespaces/inkscape"
   xmlns:sodipodi="http://sodipodi.sourceforge.net/DTD/sodipodi-0.dtd"
   xmlns="http://www.w3.org/2000/svg"
   xmlns:svg="http://www.w3.org/2000/svg">
  <defs
     id="defs6" />
  <sodipodi:namedview
     id="namedview4"
     pagecolor="#505050"
     bordercolor="#eeeeee"
     borderopacity="1"
     inkscape:showpageshadow="0"
     inkscape:pageopacity="0"
     inkscape:pagecheckerboard="0"
     inkscape:deskcolor="#505050"
     showgrid="false"
     inkscape:zoom="0.99674932"
     inkscape:cx="172.05931"
     inkscape:cy="230.75009"
     inkscape:window-width="3440"
     inkscape:window-height="1377"
     inkscape:window-x="-8"
     inkscape:window-y="-8"
     inkscape:window-maximized="1"
     inkscape:current-layer="g8" />
  <g
     inkscape:groupmode="layer"
     inkscape:label="Image"
     id="g8"
     transform="translate(-83.886764,-74.578057)">
    <g
       id="g4967"
       transform="translate(-475.88398)">
      <path
         style="fill:#000000"
         d="m 593.88379,373.53726 c -8.68931,-1.03998 -14.96563,-3.91152 -21.10875,-9.6577 -6.03678,-5.64669 -9.52912,-12.10329 -11.451,-21.17043 -2.07276,-9.77902 -2.07036,-168.49439 0.003,-178.27505 2.62349,-12.37756 9.33637,-21.33365 19.39894,-25.88136 l 5.23519,-2.36601 -0.28854,-7.55433 -0.28854,-7.55432 -12.75,-0.27988 -12.75,-0.27987 V 97.548178 74.578057 h 120 120 v 22.970121 22.970132 l -12.75,0.27987 -12.75,0.27988 -0.28854,7.55432 -0.28854,7.55433 5.23519,2.36601 c 10.06257,4.54771 16.77545,13.5038 19.39894,25.88136 2.07306,9.78066 2.07546,168.49603 0.003,178.27505 -3.93329,18.5567 -15.14324,28.75824 -33.9816,30.92473 -9.63392,1.10794 -161.23116,1.02209 -170.57815,-0.0966 z"
         id="path2299"
         sodipodi:nodetypes="ssscscccccccccccccccsscsss" />
      <path
         d="m 770.57768,354.98035 c 5.2632,-2.62276 8.96936,-7.07057 11.1361,-13.36456 1.64375,-4.77486 1.67415,-172.29726 0.0321,-177.20155 -2.45514,-7.33285 -9.27463,-13.0291 -18.31461,-15.298 -4.9344,-1.23845 -6.53937,-5.75358 -6.54355,-18.4084 -0.002,-6.21895 0.50126,-13.31273 1.11849,-15.76396 1.90336,-7.55896 8.5229,-11.41151 19.62777,-11.4233 l 5.25,-0.006 v -5.999998 -5.999999 h -18.77749 c -27.79413,0 -26.22251,-2.3835 -26.22251,39.768857 0,36.49315 0.42559,39.00761 7.71813,45.59987 10.45114,9.44757 13.63031,13.19539 16.79514,19.79928 5.29461,11.04799 5.60112,15.1319 5.27874,70.33201 l -0.29201,50 -2.40454,3.86808 c -1.48193,2.38393 -3.97593,4.58173 -6.5,5.72804 -3.87533,1.75998 -8.09985,1.85996 -78.59546,1.85996 -70.49561,0 -74.72013,-0.1 -78.59546,-1.85996 -2.52407,-1.14631 -5.01807,-3.34411 -6.5,-5.72804 l -2.40454,-3.86808 -0.28632,-48.84787 c -0.31946,-54.50021 0.19492,-61.00212 5.70091,-72.06133 3.20909,-6.44572 7.12326,-11.03095 14.7452,-17.27318 2.8068,-2.29872 5.5883,-5.80695 6.99104,-8.81762 2.28749,-4.90955 2.32981,-5.58427 2.3394,-37.29966 0.0133,-43.809977 1.67356,-41.200357 -26.21274,-41.200357 h -18.77749 v 5.999999 5.999998 l 5.25,0.006 c 11.10487,0.0118 17.72441,3.86434 19.62777,11.4233 0.61723,2.45123 1.12055,9.54501 1.11849,15.76396 -0.004,12.65482 -1.60915,17.16995 -6.54355,18.4084 -9.03998,2.2689 -15.85947,7.96515 -18.31461,15.298 -1.64202,4.90429 -1.61167,172.42669 0.0321,177.20155 2.16674,6.29399 5.8729,10.7418 11.1361,13.36456 l 5.08639,2.53464 h 85.60731 85.60731 z"
         style="fill:#70c888;fill-opacity:1"
         id="path3857" />
      <path
         d="m 703.69419,204.63336 c -0.001,-12.02878 -2.86842,-16.72566 -22.46865,-36.80801 -20.43665,-20.93934 -22.69724,-24.72044 -23.32723,-39.01758 -0.35897,-8.14667 -0.12305,-10.16121 1.58096,-13.5 3.60092,-7.05554 8.98934,-10.10501 19.60774,-11.09657 8.83427,-0.82496 14.89571,1.88617 17.61558,7.87901 2.13441,4.70285 2.53902,11.40036 1.01066,16.72944 -1.19436,4.16449 -2.42868,5.02857 -7.21157,5.0484 -4.64312,0.0192 -6.8067,-2.74842 -6.8067,-8.7072 v -4.27749 H 676.754 c -3.81754,0 -7.22558,0.46048 -7.57341,1.02328 -1.17439,1.90021 1.57117,15.31041 4.07639,19.91042 4.77245,8.76303 13.70385,11.87518 24.81233,8.64586 7.15857,-2.08106 12.63317,-6.90129 15.71644,-13.83792 2.00902,-4.51979 2.33523,-6.89421 2.3688,-17.24164 0.0362,-11.14585 -0.15326,-12.36443 -2.66116,-17.11975 -5.12524,-9.718163 -13.26055,-14.291743 -26.89245,-15.118603 -22.35965,-1.35626 -39.11949,7.00216 -44.87261,22.378773 -2.80686,7.50199 -2.82784,22.61106 -0.0438,31.50424 3.26198,10.41973 7.44312,16.32821 22.45281,31.72871 7.8479,8.05223 15.30841,16.66231 16.57892,19.13352 1.61858,3.14822 2.44855,6.81287 2.77283,12.24311 l 0.46282,7.75 h 9.87152 9.87151 l -7.9e-4,-7.25 z"
         style="fill:#70c888;fill-opacity:1"
         id="path4526" />
      <path
         d="m 749.05524,310.17837 c 1.71681,-1.55369 1.82874,-4.24683 1.82874,-44 v -42.34501 h -71 -71 v 42.17126 c 0,37.83748 0.17008,42.35919 1.65499,44 1.57219,1.73725 5.03258,1.82874 69.17126,1.82874 61.42128,0 67.68136,-0.1494 69.34501,-1.65499 z"
         style="fill:#41744f;fill-opacity:1"
         id="path4741" />
    </g>
  </g>
</svg>
