<?xml version="1.0" encoding="UTF-8" standalone="no"?>
<svg
   width="100%"
   height="100%"
   viewBox="0 0 64 64"
   version="1.1"
   xml:space="preserve"
   style="fill-rule:evenodd;clip-rule:evenodd;stroke-linejoin:round;stroke-miterlimit:2;"
   id="svg22250"
   sodipodi:docname="Switch_Axe_Rank_01.svg"
   inkscape:version="1.2.2 (732a01da63, 2022-12-09)"
   xmlns:inkscape="http://www.inkscape.org/namespaces/inkscape"
   xmlns:sodipodi="http://sodipodi.sourceforge.net/DTD/sodipodi-0.dtd"
   xmlns="http://www.w3.org/2000/svg"
   xmlns:svg="http://www.w3.org/2000/svg"><defs
   id="defs22254">
        
    
            
        
                
                
                
                
            </defs><sodipodi:namedview
   id="namedview22252"
   pagecolor="#505050"
   bordercolor="#eeeeee"
   borderopacity="1"
   inkscape:showpageshadow="0"
   inkscape:pageopacity="0"
   inkscape:pagecheckerboard="0"
   inkscape:deskcolor="#505050"
   showgrid="false"
   inkscape:zoom="16.046875"
   inkscape:cx="32.062317"
   inkscape:cy="31.968841"
   inkscape:window-width="3440"
   inkscape:window-height="1377"
   inkscape:window-x="-8"
   inkscape:window-y="-8"
   inkscape:window-maximized="1"
   inkscape:current-layer="svg22250" />
    <path
   id="background"
   style="fill-opacity:0.76;fill:none;stroke:#000000;stroke-opacity:1;stroke-width:4;stroke-dasharray:none"
   d="M 48 5 L 48 14 L 40 14 L 40 11 L 40 10 C 40 9.4480006 39.551999 9 39 9 L 23 9 C 22.448001 9 22 9.4480006 22 10 L 22 11 L 18 11 L 14 11 L 11 11 L 7 11 C 6.000001 11 6 12 6 12 L 6 38 C 6 38 6.000003 41.000004 9 45 C 11.999997 48.999996 19 48 19 48 L 19 46 C 19 46 17.999998 45.999998 16 44 C 14.000002 42.000002 14 38 14 38 L 14 32 L 18 32 L 27 32 L 27 35 L 27 40 L 25 40 C 24.448001 40 24 40.450001 24 41 L 24 42 C 24 42.549999 24.448001 43 25 43 L 28 46 C 27.448001 46 27 46.450001 27 47 L 27 53 C 27 53.549999 27.448001 54 28 54 L 29 55 L 29 59 C 29 59.549999 29.448001 60 30 60 L 36 60 C 36.551999 60 37 59.549999 37 59 L 37 55 L 35 55 L 35 53 L 35 52 L 35 47 L 35 46 L 37.5 43 L 39 43 C 39.551999 43 40 42.549999 40 42 L 40 40 L 40 35 L 40 32 L 40 29 L 48 29 L 48 36 L 53.5 30.5 L 58 26 L 58 5 L 54 5 L 48 5 z M 40 19 L 48 19 L 48 24 L 40 24 L 40 19 z " />
<g
   transform="matrix(1,0,0,1,0,-512)"
   id="g22748">
        <g
   transform="matrix(1,0,0,1,0,-544)"
   id="g22746">
            <g
   id="g22744"
   transform="matrix(1,0,0,1,-512,96)">
                <path
   id="base"
   d="M552,974L561,974L561,979L552,979L552,984L561,984L561,989L552,989L552,1000L547,1006L547,1018L542,1018L542,1016L540,1014L540,1006L537,1003L537,1000L539,1000L539,992L523,992L523,971L552,971L552,974Z"
   style="fill-opacity:1;fill:#1f1f1f"
   inkscape:label="base" />
                <path
   id="path22738"
   d="M541,1006L540,1006C539.448,1006 539,1006.45 539,1007L539,1013C539,1013.55 539.448,1014 540,1014L541,1014L541,1006ZM552,992L539,992L539,990L535,990C534.448,990 534,989.552 534,989L534,984L530,984C529.448,984 529,983.552 529,983L529,980C529,979.448 529.448,979 530,979L534,979L534,970C534,969.448 534.448,969 535,969L551,969C551.552,969 552,969.448 552,970L552,992ZM546,982C548.208,982 550,983.792 550,986C550,988.208 548.208,990 546,990C543.792,990 542,988.208 542,986C542,983.792 543.792,982 546,982ZM546,971C548.208,971 550,972.792 550,975C550,977.208 548.208,979 546,979C543.792,979 542,977.208 542,975C542,972.792 543.792,971 546,971Z"
   style="fill:rgb(108,108,108);" />
                <path
   id="path22740"
   d="M547,1015L549,1015L549,1019C549,1019.55 548.552,1020 548,1020L542,1020C541.448,1020 541,1019.55 541,1019L541,1015L543,1015L543,1017L547,1017L547,1015ZM547,1012C547,1011.45 546.552,1011 546,1011L544,1011L544,1014L546,1014C546.552,1014 547,1013.55 547,1013L547,1012ZM526,971L526,998C526,998 526,1002 528,1004C530,1006 531,1006 531,1006L531,1008C531,1008 524,1009 521,1005C518,1001 518,998 518,998L518,972C518,972 518,971 519,971L526,971ZM547,1007C547,1006.45 546.552,1006 546,1006L544,1006L544,1008L546,1008C546.552,1008 547,1007.55 547,1007ZM560,965L570,965L570,986L560,996L560,965Z"
   style="fill:rgb(181,181,181);" />
                <path
   id="path22742"
   d="M550,995L552,995L552,1002C552,1002.55 551.552,1003 551,1003L537,1003C536.448,1003 536,1002.55 536,1002L536,1001C536,1000.45 536.448,1000 537,1000L539,1000L539,995L542,995C542,997.208 543.792,999 546,999C548.208,999 550,997.208 550,995ZM548,995L544,995C544,996.104 544.896,997 546,997C547.104,997 548,996.104 548,995ZM566,965L563,968L568,973L563,978L568,983L563,988L565.5,990.5L560,996L560,965L566,965ZM531,988C531,987.448 530.552,987 530,987L526,987L526,992L530,992C530.552,992 531,991.552 531,991L531,988ZM546,984C547.104,984 548,984.896 548,986C548,987.104 547.104,988 546,988C544.896,988 544,987.104 544,986C544,984.896 544.896,984 546,984ZM546,973C547.104,973 548,973.896 548,975C548,976.104 547.104,977 546,977C544.896,977 544,976.104 544,975C544,973.896 544.896,973 546,973ZM531,972C531,971.448 530.552,971 530,971L526,971L526,976L530,976C530.552,976 531,975.552 531,975L531,972Z"
   style="fill:rgb(138,138,138);" />
            </g>
        </g>
    </g></svg>
