<?xml version="1.0" encoding="UTF-8" standalone="no"?>
<svg
   width="100%"
   height="100%"
   viewBox="0 0 64 64"
   version="1.1"
   xml:space="preserve"
   style="fill-rule:evenodd;clip-rule:evenodd;stroke-linejoin:round;stroke-miterlimit:2;"
   id="svg28968"
   sodipodi:docname="Sword_&amp;_Shield_Rank_01.svg"
   inkscape:version="1.2.2 (732a01da63, 2022-12-09)"
   xmlns:inkscape="http://www.inkscape.org/namespaces/inkscape"
   xmlns:sodipodi="http://sodipodi.sourceforge.net/DTD/sodipodi-0.dtd"
   xmlns="http://www.w3.org/2000/svg"
   xmlns:svg="http://www.w3.org/2000/svg"
   xmlns:serif="http://www.serif.com/"><defs
   id="defs28972">
        
    
            
            
            
            
        </defs><sodipodi:namedview
   id="namedview28970"
   pagecolor="#505050"
   bordercolor="#eeeeee"
   borderopacity="1"
   inkscape:showpageshadow="0"
   inkscape:pageopacity="0"
   inkscape:pagecheckerboard="0"
   inkscape:deskcolor="#505050"
   showgrid="false"
   inkscape:zoom="16.046875"
   inkscape:cx="32"
   inkscape:cy="31.968841"
   inkscape:window-width="3440"
   inkscape:window-height="1377"
   inkscape:window-x="-8"
   inkscape:window-y="-8"
   inkscape:window-maximized="1"
   inkscape:current-layer="svg28968" />
    <path
   id="background"
   style="fill-opacity:0.76;fill:none;stroke:#000000;stroke-opacity:1;stroke-width:4;stroke-dasharray:none"
   d="M 18 7 L 14 11 L 14 39 L 14 40 L 14 43 L 7 43 C 6.4480006 43 6 43.450001 6 44 L 6 46 C 6 46.549999 6.4480006 47 7 47 L 14 47 L 14 50 L 14 53 L 14 55 L 14 56 L 14 57 L 19 57 L 19 56 L 19 55 L 19 53 L 19 50 L 19 47 L 20 47 L 22 47 L 23 47 L 24 47 C 24.551999 47 25 46.549999 25 46 L 25 44 C 25 43.450001 24.551999 43 24 43 L 23 43 L 22 43 L 20 43 L 19 43 L 19 40 L 19 39 L 19 7 L 18 7 z M 45 24.283203 C 39.405006 24.964202 34.964202 29.406006 34.283203 35 L 36 35 C 36.551999 35 37 35.448001 37 36 L 37 37 C 37 37.551999 36.551999 38 36 38 L 34.283203 38 C 34.964202 43.589994 39.405006 48.030704 45 48.720703 L 45 47 C 45 46.450001 45.448001 46 46 46 L 47 46 C 47.551999 46 48 46.450001 48 47 L 48 48.720703 C 53.594994 48.030704 58.035798 43.589994 58.716797 38 L 57 38 C 56.448001 38 56 37.551999 56 37 L 56 36 C 56 35.448001 56.448001 35 57 35 L 58.716797 35 C 58.035798 29.406006 53.594994 24.964202 48 24.283203 L 48 26 C 48 26.551999 47.551999 27 47 27 L 46 27 C 45.448001 27 45 26.551999 45 26 L 45 24.283203 z " />
<g
   transform="matrix(1,0,0,1,0,-960)"
   id="g29464">
        <g
   id="g29462"
   serif:id="Sword_&amp;_Shield_Rank_01">
            <path
   id="path29454"
   d="M19,1003L23,1003L23,1007L19,1007L19,1016L14,1016L14,999L19,999L19,1003ZM54.5,988.5L38.5,988.5L38.5,1004.5L54.5,1004.5L54.5,988.5Z"
   style="fill-opacity:1;fill:#1f1f1f" />
            <path
   id="path29456"
   d="M51.5,992.5C51.5,991.948 51.052,991.5 50.5,991.5L42.5,991.5C41.948,991.5 41.5,991.948 41.5,992.5L41.5,1000.5C41.5,1001.05 41.948,1001.5 42.5,1001.5L50.5,1001.5C51.052,1001.5 51.5,1001.05 51.5,1000.5L51.5,992.5Z"
   style="fill:rgb(35,35,35);" />
            <path
   id="path29458"
   d="M19,1015L14,1015L14,1017L19,1017L19,1015ZM19,1010L14,1010L14,1013L19,1013L19,1010Z"
   style="fill:rgb(109,109,109);" />
            <path
   id="path29460"
   d="M58.716,998C58.035,1003.59 53.595,1008.03 48,1008.72L48,1007C48,1006.45 47.552,1006 47,1006L46,1006C45.448,1006 45,1006.45 45,1007L45,1008.72C39.405,1008.03 34.965,1003.59 34.284,998L36,998C36.552,998 37,997.552 37,997L37,996C37,995.448 36.552,995 36,995L34.284,995C34.965,989.406 39.405,984.965 45,984.284L45,986C45,986.552 45.448,987 46,987L47,987C47.552,987 48,986.552 48,986L48,984.284C53.595,984.965 58.035,989.406 58.716,995L57,995C56.448,995 56,995.448 56,996L56,997C56,997.552 56.448,998 57,998L58.716,998ZM20,1003L20,1007L7,1007C6.448,1007 6,1006.55 6,1006L6,1004C6,1003.45 6.448,1003 7,1003L20,1003ZM22,1003L24,1003C24.552,1003 25,1003.45 25,1004L25,1006C25,1006.55 24.552,1007 24,1007L22,1007L22,1003ZM53,991C53,990.448 52.552,990 52,990L41,990C40.448,990 40,990.448 40,991L40,1002C40,1002.55 40.448,1003 41,1003L52,1003C52.552,1003 53,1002.55 53,1002L53,991ZM14,1000L19,1000L19,967L18,967L14,971L14,1000Z"
   style="fill:rgb(181,181,181);" />
        </g>
    </g></svg>
