<?xml version="1.0" encoding="UTF-8" standalone="no"?>
<!-- Created with Inkscape (http://www.inkscape.org/) -->

<svg
   width="170.47879mm"
   height="172.64792mm"
   viewBox="0 0 170.47879 172.64792"
   version="1.1"
   id="svg9711"
   xml:space="preserve"
   inkscape:version="1.2.2 (732a01da63, 2022-12-09)"
   sodipodi:docname="attack.svg"
   xmlns:inkscape="http://www.inkscape.org/namespaces/inkscape"
   xmlns:sodipodi="http://sodipodi.sourceforge.net/DTD/sodipodi-0.dtd"
   xmlns="http://www.w3.org/2000/svg"
   xmlns:svg="http://www.w3.org/2000/svg"><sodipodi:namedview
     id="namedview9713"
     pagecolor="#505050"
     bordercolor="#eeeeee"
     borderopacity="1"
     inkscape:showpageshadow="0"
     inkscape:pageopacity="0"
     inkscape:pagecheckerboard="0"
     inkscape:deskcolor="#505050"
     inkscape:document-units="mm"
     showgrid="false"
     inkscape:zoom="1.2938725"
     inkscape:cx="255.82119"
     inkscape:cy="433.1957"
     inkscape:window-width="2377"
     inkscape:window-height="1368"
     inkscape:window-x="-7"
     inkscape:window-y="0"
     inkscape:window-maximized="0"
     inkscape:current-layer="layer1" /><defs
     id="defs9708"><inkscape:path-effect
       effect="fillet_chamfer"
       id="path-effect16905"
       is_visible="true"
       lpeversion="1"
       nodesatellites_param="F,0,0,1,0,2.6458333,0,1 @ F,0,0,1,0,2.6458333,0,1 @ F,0,0,1,0,2.6458333,0,1 @ F,0,0,1,0,2.6458333,0,1"
       unit="px"
       method="auto"
       mode="F"
       radius="10"
       chamfer_steps="1"
       flexible="false"
       use_knot_distance="true"
       apply_no_radius="true"
       apply_with_radius="true"
       only_selected="false"
       hide_knots="false" /></defs><g
     inkscape:label="Layer 1"
     inkscape:groupmode="layer"
     id="layer1"
     style="display:inline"
     transform="translate(-18.50799,-10.410858)"><path
       id="path12502"
       style="display:inline;fill:#d89b26;fill-opacity:1;stroke:#000000;stroke-width:3.471;stroke-linejoin:round;stroke-miterlimit:6.2;stroke-dasharray:none;stroke-opacity:1;paint-order:stroke fill markers"
       d="M 103.74738,12.146029 82.131213,70.852006 35.641528,47.716467 l 23.393,64.778993 -38.791319,-8.38657 40.567621,48.8735 -24.873516,-2.02416 67.810066,30.36507 67.81007,-30.36507 -24.87351,2.02416 40.56762,-48.8735 -38.7908,8.38657 23.393,-64.778993 -46.48968,23.135539 z" /><path
       id="rect14875-7"
       style="font-variation-settings:normal;display:inline;vector-effect:none;fill:#000000;fill-opacity:1;stroke:none;stroke-width:5.68161;stroke-linecap:round;stroke-linejoin:round;stroke-miterlimit:4;stroke-dasharray:none;stroke-dashoffset:0;stroke-opacity:1;-inkscape-stroke:none;stop-color:#000000"
       d="M 135.71892 88.761631 C 135.78198 109.70595 135.74222 130.6522 135.73236 151.59707 C 136.20445 154.99525 133.74506 158.68462 130.25569 159.12323 C 118.59212 159.23169 106.92811 159.2064 95.264028 159.19816 L 130.57195 167.63589 A 3.1615467 3.4404862 13.440328 0 0 134.44665 165.02416 L 150.95624 95.940004 A 3.1615467 3.4404862 13.440328 0 0 148.68092 91.859116 L 135.71892 88.761631 z " /><path
       id="rect14875"
       d="m 78.075915,78.114985 h 51.342945 a 3.1615467,3.4404862 0 0 1 3.16154,3.440486 v 71.029539 a 3.1615467,3.4404862 0 0 1 -3.16154,3.44048 H 78.075915 a 3.1615467,3.4404862 0 0 1 -3.161546,-3.44048 V 81.555471 a 3.1615467,3.4404862 0 0 1 3.161546,-3.440486 z"
       style="display:inline;font-variation-settings:normal;opacity:1;vector-effect:none;fill:#000000;fill-opacity:1;stroke:none;stroke-width:5.68161;stroke-linecap:round;stroke-linejoin:round;stroke-miterlimit:4;stroke-dasharray:none;stroke-dashoffset:0;stroke-opacity:1;-inkscape-stroke:none;stop-color:#000000;stop-opacity:1" /></g></svg>
