<?xml version="1.0" encoding="UTF-8" standalone="no"?>
<!-- Created with Inkscape (http://www.inkscape.org/) -->

<svg
   width="118.80505mm"
   height="118.80505mm"
   viewBox="0 0 118.80505 118.80505"
   version="1.1"
   id="svg2481"
   inkscape:version="1.2.2 (732a01da63, 2022-12-09)"
   sodipodi:docname="combo.svg"
   xmlns:inkscape="http://www.inkscape.org/namespaces/inkscape"
   xmlns:sodipodi="http://sodipodi.sourceforge.net/DTD/sodipodi-0.dtd"
   xmlns="http://www.w3.org/2000/svg"
   xmlns:svg="http://www.w3.org/2000/svg">
  <sodipodi:namedview
     id="namedview2483"
     pagecolor="#505050"
     bordercolor="#eeeeee"
     borderopacity="1"
     inkscape:showpageshadow="0"
     inkscape:pageopacity="0"
     inkscape:pagecheckerboard="0"
     inkscape:deskcolor="#505050"
     inkscape:document-units="mm"
     showgrid="false"
     inkscape:zoom="1.2938725"
     inkscape:cx="187.80831"
     inkscape:cy="285.57683"
     inkscape:window-width="2377"
     inkscape:window-height="1368"
     inkscape:window-x="-7"
     inkscape:window-y="0"
     inkscape:window-maximized="0"
     inkscape:current-layer="layer1" />
  <defs
     id="defs2478" />
  <g
     inkscape:label="Layer 1"
     inkscape:groupmode="layer"
     id="layer1"
     transform="translate(2.6354992,2.6354966)">
    <rect
       style="fill:#ada550;fill-opacity:1;stroke:#000000;stroke-width:4.23573;stroke-linecap:round;stroke-linejoin:round;stroke-miterlimit:6.2;paint-order:stroke fill markers;stop-color:#000000"
       id="rect5285"
       width="114.56932"
       height="114.56932"
       x="-114.05169"
       y="-0.51763409"
       transform="rotate(-90)" />
    <g
       id="g6017"
       transform="translate(-37.909254,0.37460531)">
      <path
         id="rect14875"
         style="font-variation-settings:normal;display:inline;vector-effect:none;fill:#000000;fill-opacity:1;stroke:none;stroke-width:5.68161;stroke-linecap:round;stroke-linejoin:round;stroke-miterlimit:4;stroke-dasharray:none;stroke-dashoffset:0;stroke-opacity:1;-inkscape-stroke:none;stop-color:#000000"
         d="m 72.075187,17.437179 a 3.1615467,3.4404862 0 0 0 -3.161564,3.440616 v 71.029257 a 3.1615467,3.4404862 0 0 0 3.161564,3.440616 h 4.078304 A 3.1615467,3.4404862 0 0 1 72.991927,91.907052 V 20.877795 a 3.1615467,3.4404862 0 0 1 3.161564,-3.440616 z" />
      <path
         id="rect14875-4"
         style="font-variation-settings:normal;display:inline;vector-effect:none;fill:#000000;fill-opacity:1;stroke:none;stroke-width:5.68161;stroke-linecap:round;stroke-linejoin:round;stroke-miterlimit:4;stroke-dasharray:none;stroke-dashoffset:0;stroke-opacity:1;-inkscape-stroke:none;stop-color:#000000"
         d="m 65.196019,17.437179 a 3.1615467,3.4404862 0 0 0 -3.161564,3.440616 v 71.029257 a 3.1615467,3.4404862 0 0 0 3.161564,3.440616 h 4.078304 A 3.1615467,3.4404862 0 0 1 66.112759,91.907052 V 20.877795 a 3.1615467,3.4404862 0 0 1 3.161564,-3.440616 z" />
      <path
         id="rect14875-1"
         style="font-variation-settings:normal;display:inline;vector-effect:none;fill:#000000;fill-opacity:1;stroke:none;stroke-width:5.68161;stroke-linecap:round;stroke-linejoin:round;stroke-miterlimit:4;stroke-dasharray:none;stroke-dashoffset:0;stroke-opacity:1;-inkscape-stroke:none;stop-color:#000000"
         d="m 58.316854,17.437179 a 3.1615467,3.4404862 0 0 0 -3.161564,3.440616 v 71.029257 a 3.1615467,3.4404862 0 0 0 3.161564,3.440616 h 4.078304 A 3.1615467,3.4404862 0 0 1 59.233594,91.907052 V 20.877795 a 3.1615467,3.4404862 0 0 1 3.161564,-3.440616 z" />
      <path
         id="rect14875-3"
         d="m 79.692786,17.437172 h 51.342944 a 3.1615467,3.4404862 0 0 1 3.16154,3.440486 v 71.029539 a 3.1615467,3.4404862 0 0 1 -3.16154,3.440478 H 79.692786 a 3.1615467,3.4404862 0 0 1 -3.16154,-3.440478 V 20.877658 a 3.1615467,3.4404862 0 0 1 3.16154,-3.440486 z"
         style="font-variation-settings:normal;display:inline;vector-effect:none;fill:#000000;fill-opacity:1;stroke:none;stroke-width:5.68161;stroke-linecap:round;stroke-linejoin:round;stroke-miterlimit:4;stroke-dasharray:none;stroke-dashoffset:0;stroke-opacity:1;-inkscape-stroke:none;stop-color:#000000" />
    </g>
  </g>
</svg>
