<?xml version="1.0" encoding="UTF-8" standalone="no"?>
<!-- Created with Inkscape (http://www.inkscape.org/) -->

<svg
   width="200.35223mm"
   height="199.73941mm"
   viewBox="0 0 200.35223 199.73941"
   version="1.1"
   id="svg21813"
   xml:space="preserve"
   inkscape:version="1.2.2 (732a01da63, 2022-12-09)"
   sodipodi:docname="damage.svg"
   xmlns:inkscape="http://www.inkscape.org/namespaces/inkscape"
   xmlns:sodipodi="http://sodipodi.sourceforge.net/DTD/sodipodi-0.dtd"
   xmlns="http://www.w3.org/2000/svg"
   xmlns:svg="http://www.w3.org/2000/svg"><sodipodi:namedview
     id="namedview21815"
     pagecolor="#505050"
     bordercolor="#eeeeee"
     borderopacity="1"
     inkscape:showpageshadow="0"
     inkscape:pageopacity="0"
     inkscape:pagecheckerboard="0"
     inkscape:deskcolor="#505050"
     inkscape:document-units="mm"
     showgrid="false"
     inkscape:zoom="1.2938725"
     inkscape:cx="302.96649"
     inkscape:cy="418.5111"
     inkscape:window-width="2377"
     inkscape:window-height="1368"
     inkscape:window-x="-7"
     inkscape:window-y="0"
     inkscape:window-maximized="0"
     inkscape:current-layer="layer1" /><defs
     id="defs21810" /><g
     inkscape:label="Layer 1"
     inkscape:groupmode="layer"
     id="layer1"
     transform="translate(-5.3404368,-4.9311387)"><path
       id="path24541"
       style="fill:#d89b26;fill-opacity:1;stroke:#000000;stroke-width:5.271;stroke-linecap:round;stroke-linejoin:round;stroke-miterlimit:6.2;stroke-dasharray:none;stroke-opacity:1;paint-order:stroke fill markers;stop-color:#000000"
       d="M 88.748588,7.5659465 82.613562,56.643571 63.596118,44.578674 70.753304,71.571342 40.489001,62.573958 60.324483,84.658398 7.9752238,88.135189 43.556514,105.31192 7.9752238,123.10256 l 53.9853352,3.88555 -19.426721,20.24425 26.17463,-6.74791 -4.089673,25.56123 17.994767,-15.95045 4.907711,51.9405 17.995287,-35.99005 17.99528,35.99005 4.90771,-51.9405 17.99477,15.95045 -4.08967,-25.56123 26.17463,6.74791 -19.42621,-20.24425 53.98482,-3.88555 -35.58077,-17.79064 35.58077,-17.176731 -52.34926,-3.476791 19.83548,-22.08444 -30.2643,8.997384 L 147.437,44.578674 128.41955,56.643571 122.28453,7.5659465 105.51656,44.374036 Z" /></g></svg>
